# xmcd
#
# Track frame offsets: 
#        150
#        28232
#        53341
#        69748
#        91997
#        117538
#        141676
#        172608
#        201287
#        231168
#
# Disc length: 3439 seconds
#
# Revision: 0
# Processed by: cddbd v1.5.2PL0 Copyright (c) Steve Scherf et al.
# Submitted via: ExactAudioCopy v0.99pb3
#
DISCID=8d0d6d0a
DTITLE=Edward M. Kennedy - True Compass (09 of 17)
DYEAR=2009
DGENRE=AudioBook
TTITLE0=0901
TTITLE1=0902
TTITLE2=0903
TTITLE3=0904
TTITLE4=0905
TTITLE5=0906
TTITLE6=0907
TTITLE7=0908
TTITLE8=0909
TTITLE9=0910
EXTD=
EXTT0=
EXTT1=
EXTT2=
EXTT3=
EXTT4=
EXTT5=
EXTT6=
EXTT7=
EXTT8=
EXTT9=
PLAYORDER=
